<?xml version="1.0" standalone="no"?>
<!DOCTYPE svg PUBLIC "-//W3C//DTD SVG 20010904//EN"
 "http://www.w3.org/TR/2001/REC-SVG-20010904/DTD/svg10.dtd">
<svg version="1.0" xmlns="http://www.w3.org/2000/svg"
 width="98.000000pt" height="98.000000pt" viewBox="0 0 98.000000 98.000000"
 preserveAspectRatio="xMidYMid meet">
<metadata>
Created by potrace 1.14, written by Peter Selinger 2001-2017
</metadata>
<g transform="translate(0.000000,98.000000) scale(0.100000,-0.100000)"
fill="#000000" stroke="none">
<path d="M566 750 c-96 -61 -214 -190 -389 -425 -106 -141 -128 -182 -107
-195 24 -15 47 7 53 50 5 38 43 105 95 170 12 14 44 54 72 90 139 176 242 270
297 270 12 0 31 -10 43 -22 48 -52 9 -192 -82 -292 l-45 -50 -99 1 -99 1 77
-7 c42 -3 79 -9 83 -12 9 -10 -44 -45 -127 -85 -40 -19 -62 -32 -48 -28 40 10
131 53 183 86 26 17 50 28 53 26 7 -7 -106 -75 -199 -118 -45 -21 -76 -39 -69
-39 24 -1 165 59 282 121 170 90 183 96 232 108 43 11 83 5 191 -26 12 -4 17
0 17 13 -1 18 -59 52 -110 64 -23 5 -19 9 43 49 61 40 67 47 67 78 l0 34 -47
-36 c-141 -105 -367 -245 -379 -233 -3 3 16 28 43 57 64 69 98 121 123 186 29
80 27 129 -9 165 -39 39 -82 38 -145 -1z"/>
</g>
</svg>
